<svg width="16" height="16" viewBox="0 0 16 16" fill="none" xmlns="http://www.w3.org/2000/svg">
<rect width="16" height="16" rx="8" fill="white"/>
<path d="M1.59961 3.60001H14.3996M6.39961 11.6V6.80001M9.59961 11.6V6.80001M11.1996 14.8H4.79961C3.91595 14.8 3.19961 14.0837 3.19961 13.2V4.40001C3.19961 3.95818 3.55778 3.60001 3.99961 3.60001H11.9996C12.4414 3.60001 12.7996 3.95818 12.7996 4.40001V13.2C12.7996 14.0837 12.0833 14.8 11.1996 14.8ZM6.39961 3.60001H9.59961C10.0414 3.60001 10.3996 3.24184 10.3996 2.80001V2.00001C10.3996 1.55818 10.0414 1.20001 9.59961 1.20001H6.39961C5.95778 1.20001 5.59961 1.55818 5.59961 2.00001V2.80001C5.59961 3.24184 5.95778 3.60001 6.39961 3.60001Z" stroke="#CC2901" stroke-width="1.5" stroke-linecap="round" stroke-linejoin="round"/>
</svg>
