<svg width="24" height="24" viewBox="0 0 24 24" fill="none" xmlns="http://www.w3.org/2000/svg">
<path fill-rule="evenodd" clip-rule="evenodd" d="M18.1921 16.2174L13.9747 12L18.1921 7.78264C18.7365 7.23823 18.7365 6.35274 18.1921 5.80833C17.6477 5.26392 16.7622 5.26392 16.2178 5.80833L12.0004 10.0257L7.78301 5.80833C7.2386 5.26392 6.35311 5.26392 5.8087 5.80833C5.26429 6.35274 5.26429 7.23823 5.8087 7.78264L10.0261 12L5.8087 16.2174C5.26429 16.7618 5.26429 17.6473 5.8087 18.1917C6.35311 18.7361 7.2386 18.7361 7.78301 18.1917L12.0004 13.9743L16.2178 18.1917C16.7622 18.7361 17.6477 18.7361 18.1921 18.1917C18.7365 17.6473 18.7365 16.7618 18.1921 16.2174Z" fill="#0C0D0E"/>
</svg>
