<svg width="15" height="16" viewBox="0 0 15 16" fill="none" xmlns="http://www.w3.org/2000/svg">
<path d="M1.0166 3.59995H13.8166M5.8166 11.6V6.79995M9.0166 11.6V6.79995M10.6166 14.8H4.2166C3.33295 14.8 2.6166 14.0836 2.6166 13.2V4.39995C2.6166 3.95812 2.97477 3.59995 3.4166 3.59995H11.4166C11.8584 3.59995 12.2166 3.95812 12.2166 4.39995V13.2C12.2166 14.0836 11.5003 14.8 10.6166 14.8ZM5.8166 3.59995H9.0166C9.45843 3.59995 9.8166 3.24178 9.8166 2.79995V1.99995C9.8166 1.55812 9.45843 1.19995 9.0166 1.19995H5.8166C5.37477 1.19995 5.0166 1.55812 5.0166 1.99995V2.79995C5.0166 3.24178 5.37477 3.59995 5.8166 3.59995Z" stroke="#0C0D0E" stroke-width="1.5" stroke-linecap="round" stroke-linejoin="round"/>
</svg>
