<svg width="43" height="40" viewBox="0 0 43 40" fill="none" xmlns="http://www.w3.org/2000/svg">
<path fill-rule="evenodd" clip-rule="evenodd" d="M18.8289 -3.18602C18.1522 -3.18602 17.6036 -2.63597 17.6036 -1.95745V11.2685L8.43373 2.57246C7.94209 2.10622 7.16659 2.12789 6.70161 2.62086L3.33392 6.19124C2.86894 6.68421 2.89055 7.4618 3.38219 7.92803L13.2545 17.2902H0.449877C-0.22682 17.2902 -0.775391 17.8402 -0.775391 18.5187V23.433C-0.775391 24.1116 -0.226819 24.6616 0.449878 24.6616L42.9259 24.6616C43.6026 24.6616 44.1511 24.1116 44.1511 23.433V18.5187C44.1511 17.8402 43.6026 17.2902 42.9259 17.2902H28.8414L38.7137 7.92803C39.2054 7.4618 39.227 6.68421 38.762 6.19124L35.3943 2.62086C34.9293 2.12789 34.1538 2.10622 33.6622 2.57246L24.9553 10.8294V-1.95745C24.9553 -2.63597 24.4067 -3.18602 23.73 -3.18602H18.8289Z" fill="#FBDB35"/>
<path fill-rule="evenodd" clip-rule="evenodd" d="M-0.775391 27.9381C-0.775391 27.2596 -0.22682 26.7095 0.449877 26.7095L42.9259 26.7095C43.6026 26.7095 44.1511 27.2596 44.1511 27.9381V32.8524C44.1511 33.5309 43.6026 34.081 42.9259 34.081H37.2967L34.5508 38.7343C34.1812 39.3606 33.9964 39.6737 33.7565 39.7798C33.5471 39.8723 33.3086 39.8726 33.099 39.7805C32.8588 39.6749 32.6734 39.3621 32.3025 38.7366L29.5423 34.081L0.449878 34.0809C-0.226819 34.0809 -0.775391 33.5309 -0.775391 32.8524V27.9381Z" fill="#B0CAFF"/>
</svg>
