<svg width="16" height="16" viewBox="0 0 16 16" fill="none" xmlns="http://www.w3.org/2000/svg">
<path d="M1.6001 3.60001H14.4001M6.4001 11.6V6.80001M9.6001 11.6V6.80001M11.2001 14.8H4.8001C3.91644 14.8 3.2001 14.0837 3.2001 13.2V4.40001C3.2001 3.95818 3.55827 3.60001 4.0001 3.60001H12.0001C12.4419 3.60001 12.8001 3.95818 12.8001 4.40001V13.2C12.8001 14.0837 12.0838 14.8 11.2001 14.8ZM6.4001 3.60001H9.6001C10.0419 3.60001 10.4001 3.24184 10.4001 2.80001V2.00001C10.4001 1.55818 10.0419 1.20001 9.6001 1.20001H6.4001C5.95827 1.20001 5.6001 1.55818 5.6001 2.00001V2.80001C5.6001 3.24184 5.95827 3.60001 6.4001 3.60001Z" stroke="#0C0D0E" stroke-width="1.5" stroke-linecap="round" stroke-linejoin="round"/>
</svg>
