<svg width="208" height="60" viewBox="0 0 208 60" fill="none" xmlns="http://www.w3.org/2000/svg">
<mask id="mask0_578_4726" style="mask-type:alpha" maskUnits="userSpaceOnUse" x="51" y="18" width="25" height="24">
<ellipse cx="63.8842" cy="30" rx="11.9677" ry="12" fill="#D9D9D9"/>
</mask>
<g mask="url(#mask0_578_4726)">
<path fill-rule="evenodd" clip-rule="evenodd" d="M62.4024 15.9427C62.0247 15.9427 61.7185 16.2497 61.7185 16.6284V24.0103L56.6004 19.1567C56.326 18.8965 55.8932 18.9086 55.6337 19.1837L53.754 21.1765C53.4945 21.4517 53.5066 21.8857 53.781 22.1459L59.2911 27.3713H52.1443C51.7666 27.3713 51.4604 27.6783 51.4604 28.057V30.7998C51.4604 31.1785 51.7666 31.4855 52.1443 31.4855L75.8519 31.4855C76.2295 31.4855 76.5357 31.1785 76.5357 30.7998V28.057C76.5357 27.6783 76.2295 27.3713 75.8519 27.3713H67.9908L73.5009 22.1459C73.7753 21.8857 73.7874 21.4517 73.5278 21.1765L71.6482 19.1837C71.3887 18.9086 70.9558 18.8965 70.6814 19.1567L65.8217 23.7653V16.6284C65.8217 16.2497 65.5156 15.9427 65.1379 15.9427H62.4024Z" fill="#FBDB35"/>
<path fill-rule="evenodd" clip-rule="evenodd" d="M51.4604 33.3143C51.4604 32.9355 51.7666 32.6285 52.1443 32.6285L75.8519 32.6285C76.2295 32.6285 76.5357 32.9355 76.5357 33.3143V36.0571C76.5357 36.4358 76.2295 36.7428 75.8519 36.7428H72.71L71.1774 39.34C70.9711 39.6896 70.868 39.8644 70.734 39.9236C70.6172 39.9752 70.4841 39.9754 70.3671 39.9239C70.233 39.865 70.1295 39.6905 69.9225 39.3413L68.382 36.7428L52.1443 36.7428C51.7666 36.7428 51.4604 36.4358 51.4604 36.0571V33.3143Z" fill="#B0CAFF"/>
</g>
<path d="M85.1922 32.3407C85.9675 32.8157 86.7356 33.1888 87.4965 33.4602C88.2574 33.7316 88.9681 33.8673 89.6286 33.8673C90.2603 33.8673 90.7413 33.7859 91.0715 33.6231C91.4017 33.4467 91.5668 33.1888 91.5668 32.8496C91.5668 32.6732 91.495 32.5375 91.3514 32.4425C91.2079 32.334 91.0141 32.2458 90.77 32.1779C90.5403 32.1101 90.2675 32.0558 89.9516 32.0151C89.6358 31.9744 89.3127 31.9201 88.9825 31.8522C88.6666 31.798 88.2933 31.7369 87.8626 31.669C87.4463 31.5876 87.0155 31.4791 86.5705 31.3434C86.1254 31.1941 85.6803 31.0109 85.2352 30.7938C84.8045 30.5767 84.4169 30.2985 84.0723 29.9593C83.7277 29.62 83.4478 29.2197 83.2324 28.7584C83.0314 28.2834 82.9309 27.7271 82.9309 27.0893C82.9309 26.153 83.1247 25.3796 83.5124 24.7689C83.9 24.1583 84.3882 23.6766 84.9768 23.3238C85.5798 22.9574 86.2474 22.7064 86.9796 22.5707C87.7119 22.4214 88.4226 22.3468 89.1117 22.3468C90.3177 22.3468 91.3945 22.5164 92.3421 22.8556C93.304 23.1813 94.2229 23.663 95.0987 24.3008C95.2136 24.3958 95.2782 24.5111 95.2925 24.6468C95.3069 24.7825 95.271 24.9046 95.1848 25.0132L93.505 27.2725C93.4189 27.3811 93.304 27.4489 93.1605 27.4761C93.0169 27.5032 92.8877 27.4761 92.7728 27.3946C92.0406 26.9604 91.3586 26.6551 90.7269 26.4787C90.0952 26.2887 89.5137 26.1937 88.9825 26.1937C88.8246 26.1937 88.6379 26.2005 88.4226 26.2141C88.2216 26.2141 88.0277 26.2412 87.8411 26.2955C87.6544 26.3362 87.4965 26.4108 87.3673 26.5194C87.2524 26.628 87.195 26.7772 87.195 26.9672C87.195 27.1572 87.3458 27.3268 87.6473 27.4761C87.9488 27.6253 88.2933 27.7542 88.681 27.8628C89.0686 27.9713 89.4419 28.0595 89.8009 28.1274C90.1598 28.1817 90.3895 28.2156 90.49 28.2292C91.0069 28.3242 91.574 28.4666 92.1914 28.6566C92.8087 28.833 93.383 29.1044 93.9142 29.4708C94.4598 29.8236 94.9121 30.2917 95.271 30.8752C95.6443 31.4451 95.8309 32.1643 95.8309 33.0328C95.8309 33.847 95.6802 34.5526 95.3787 35.1496C95.0772 35.7331 94.6536 36.2148 94.108 36.5948C93.5768 36.9747 92.9308 37.2597 92.1698 37.4497C91.4232 37.6261 90.5905 37.7143 89.6716 37.7143C88.9251 37.7143 88.2287 37.6532 87.5827 37.5311C86.9366 37.4225 86.3336 37.2665 85.7736 37.0629C85.2137 36.8594 84.6897 36.6219 84.2015 36.3505C83.7277 36.0656 83.2898 35.767 82.8878 35.4549C82.773 35.3735 82.7084 35.265 82.694 35.1293C82.6796 34.98 82.7155 34.8511 82.8017 34.7425L84.4599 32.4832C84.5461 32.3747 84.6609 32.3068 84.8045 32.2797C84.9481 32.2525 85.0773 32.2729 85.1922 32.3407Z" fill="#0F1216"/>
<path d="M99.6145 30C99.6145 28.9416 99.8299 27.9442 100.261 27.0079C100.691 26.0716 101.273 25.2574 102.005 24.5654C102.737 23.8598 103.599 23.3034 104.589 22.8963C105.58 22.4892 106.635 22.2857 107.755 22.2857C108.875 22.2857 109.93 22.4892 110.921 22.8963C111.912 23.3034 112.773 23.8598 113.505 24.5654C114.252 25.2574 114.84 26.0716 115.271 27.0079C115.702 27.9442 115.917 28.9416 115.917 30C115.917 31.0584 115.702 32.0558 115.271 32.9921C114.84 33.9284 114.252 34.7493 113.505 35.4549C112.773 36.147 111.912 36.6966 110.921 37.1036C109.93 37.5107 108.875 37.7143 107.755 37.7143C106.635 37.7143 105.58 37.5107 104.589 37.1036C103.599 36.6966 102.737 36.147 102.005 35.4549C101.273 34.7493 100.691 33.9284 100.261 32.9921C99.8299 32.0558 99.6145 31.0584 99.6145 30ZM103.879 30C103.879 30.5156 103.979 31.0041 104.18 31.4655C104.381 31.9269 104.654 32.334 104.999 32.6868C105.357 33.0396 105.774 33.3245 106.248 33.5416C106.721 33.7452 107.224 33.847 107.755 33.847C108.286 33.847 108.789 33.7452 109.263 33.5416C109.736 33.3245 110.153 33.0396 110.512 32.6868C110.871 32.334 111.151 31.9269 111.352 31.4655C111.553 31.0041 111.653 30.5156 111.653 30C111.653 29.4979 111.553 29.0162 111.352 28.5548C111.151 28.0799 110.871 27.6728 110.512 27.3336C110.153 26.9808 109.736 26.7026 109.263 26.499C108.789 26.2819 108.286 26.1734 107.755 26.1734C107.224 26.1734 106.721 26.2819 106.248 26.499C105.774 26.7026 105.357 26.9808 104.999 27.3336C104.654 27.6728 104.381 28.0799 104.18 28.5548C103.979 29.0162 103.879 29.4979 103.879 30Z" fill="#0F1216"/>
<path d="M132.158 34.193V36.9612C132.158 37.0969 132.108 37.2122 132.007 37.3072C131.907 37.4022 131.785 37.4497 131.641 37.4497H120.895C120.737 37.4497 120.608 37.4022 120.507 37.3072C120.421 37.2122 120.378 37.0969 120.378 36.9612V23.0388C120.378 22.9031 120.421 22.7878 120.507 22.6928C120.608 22.5978 120.737 22.5503 120.895 22.5503H124.125C124.269 22.5503 124.391 22.5978 124.491 22.6928C124.592 22.7878 124.642 22.9031 124.642 23.0388V33.216C124.642 33.3517 124.685 33.467 124.771 33.562C124.872 33.657 125.001 33.7045 125.159 33.7045H131.641C131.785 33.7045 131.907 33.752 132.007 33.847C132.108 33.9419 132.158 34.0573 132.158 34.193Z" fill="#0F1216"/>
<path d="M139.851 37.4497H136.599C136.442 37.4497 136.312 37.4022 136.212 37.3072C136.126 37.2122 136.083 37.0969 136.083 36.9612V23.0592C136.083 22.9235 136.126 22.8081 136.212 22.7131C136.312 22.6182 136.442 22.5707 136.599 22.5707H139.851C139.995 22.5707 140.117 22.6182 140.218 22.7131C140.318 22.8081 140.368 22.9235 140.368 23.0592V36.9612C140.368 37.0969 140.318 37.2122 140.218 37.3072C140.117 37.4022 139.995 37.4497 139.851 37.4497Z" fill="#0F1216"/>
<path d="M147.278 32.3407C148.053 32.8157 148.821 33.1888 149.582 33.4602C150.343 33.7316 151.054 33.8673 151.714 33.8673C152.346 33.8673 152.827 33.7859 153.157 33.6231C153.488 33.4467 153.653 33.1888 153.653 32.8496C153.653 32.6732 153.581 32.5375 153.437 32.4425C153.294 32.334 153.1 32.2458 152.856 32.1779C152.626 32.1101 152.353 32.0558 152.037 32.0151C151.722 31.9744 151.399 31.9201 151.068 31.8522C150.752 31.798 150.379 31.7369 149.948 31.669C149.532 31.5876 149.101 31.4791 148.656 31.3434C148.211 31.1941 147.766 31.0109 147.321 30.7938C146.89 30.5767 146.503 30.2985 146.158 29.9593C145.814 29.62 145.534 29.2197 145.318 28.7584C145.117 28.2834 145.017 27.7271 145.017 27.0893C145.017 26.153 145.211 25.3796 145.598 24.7689C145.986 24.1583 146.474 23.6766 147.063 23.3238C147.666 22.9574 148.333 22.7064 149.065 22.5707C149.798 22.4214 150.508 22.3468 151.198 22.3468C152.404 22.3468 153.48 22.5164 154.428 22.8556C155.39 23.1813 156.309 23.663 157.185 24.3008C157.299 24.3958 157.364 24.5111 157.378 24.6468C157.393 24.7825 157.357 24.9046 157.271 25.0132L155.591 27.2725C155.505 27.3811 155.39 27.4489 155.246 27.4761C155.103 27.5032 154.973 27.4761 154.859 27.3946C154.126 26.9604 153.444 26.6551 152.813 26.4787C152.181 26.2887 151.6 26.1937 151.068 26.1937C150.91 26.1937 150.724 26.2005 150.508 26.2141C150.307 26.2141 150.114 26.2412 149.927 26.2955C149.74 26.3362 149.582 26.4108 149.453 26.5194C149.338 26.628 149.281 26.7772 149.281 26.9672C149.281 27.1572 149.432 27.3268 149.733 27.4761C150.035 27.6253 150.379 27.7542 150.767 27.8628C151.154 27.9713 151.528 28.0595 151.887 28.1274C152.246 28.1817 152.475 28.2156 152.576 28.2292C153.093 28.3242 153.66 28.4666 154.277 28.6566C154.895 28.833 155.469 29.1044 156 29.4708C156.546 29.8236 156.998 30.2917 157.357 30.8752C157.73 31.4451 157.917 32.1643 157.917 33.0328C157.917 33.847 157.766 34.5526 157.464 35.1496C157.163 35.7331 156.739 36.2148 156.194 36.5948C155.663 36.9747 155.017 37.2597 154.256 37.4497C153.509 37.6261 152.676 37.7143 151.757 37.7143C151.011 37.7143 150.315 37.6532 149.668 37.5311C149.022 37.4225 148.419 37.2665 147.859 37.0629C147.3 36.8594 146.775 36.6219 146.287 36.3505C145.814 36.0656 145.376 35.767 144.974 35.4549C144.859 35.3735 144.794 35.265 144.78 35.1293C144.765 34.98 144.801 34.8511 144.887 34.7425L146.546 32.4832C146.632 32.3747 146.747 32.3068 146.89 32.2797C147.034 32.2525 147.163 32.2729 147.278 32.3407Z" fill="#0F1216"/>
</svg>
