<svg width="22" height="20" viewBox="0 0 22 20" fill="none" xmlns="http://www.w3.org/2000/svg">
<path d="M15.0258 18.5708L15.0261 15.3571C15.0263 13.5819 13.5872 12.1427 11.812 12.1427H4.61481C2.83987 12.1427 1.40095 13.5815 1.40075 15.3564L1.40039 18.5708M20.6001 18.571L20.6004 15.3572C20.6005 13.5821 19.1615 12.1429 17.3863 12.1429M14.4067 2.06061C15.196 2.64624 15.7075 3.5851 15.7075 4.64343C15.7075 5.70176 15.196 6.64061 14.4067 7.22625M11.4942 4.64325C11.4942 6.41833 10.0552 7.85731 8.28013 7.85731C6.50506 7.85731 5.06608 6.41833 5.06608 4.64325C5.06608 2.86818 6.50506 1.4292 8.28013 1.4292C10.0552 1.4292 11.4942 2.86818 11.4942 4.64325Z" stroke="#72767D" stroke-width="1.5" stroke-linecap="round" stroke-linejoin="round"/>
</svg>
