<svg width="20" height="20" viewBox="0 0 20 20" fill="none" xmlns="http://www.w3.org/2000/svg">
<path d="M16.9986 10.0318C16.9998 9.96982 16.9844 9.90889 16.9546 9.85728C16.9248 9.80567 16.882 9.76587 16.832 9.74324L4.36491 4.01956C4.31774 3.99965 4.26679 3.99483 4.21744 4.0056C4.16809 4.01638 4.12219 4.04235 4.08458 4.08078C4.0477 4.12072 4.02137 4.17189 4.00864 4.22837C3.9959 4.28486 3.99727 4.34435 4.0126 4.39997L5.20211 8.85998C5.20693 8.88923 5.21926 8.91613 5.2375 8.93719C5.25574 8.95824 5.27905 8.97248 5.30439 8.97804L12.3581 9.83506C12.39 9.84032 12.4192 9.8587 12.4403 9.88681C12.4614 9.91492 12.4731 9.95089 12.4731 9.9881C12.4731 10.0253 12.4614 10.0613 12.4403 10.0894C12.4192 10.1175 12.39 10.1359 12.3581 10.1411L5.31575 11.0113C5.29041 11.0168 5.26711 11.0311 5.24887 11.0521C5.23062 11.0732 5.21829 11.1001 5.21347 11.1293L4.02397 15.5893C4.00745 15.6442 4.00466 15.7033 4.01592 15.7599C4.02717 15.8166 4.05201 15.8684 4.08759 15.9094C4.12317 15.9505 4.16806 15.9792 4.2171 15.9922C4.26615 16.0052 4.31737 16.0019 4.36491 15.9829L16.8471 10.3379C16.8969 10.3115 16.9382 10.2678 16.9654 10.2129C16.9926 10.158 17.0042 10.0947 16.9986 10.0318Z" fill="#606B85"/>
</svg>
