<svg width="12" height="16" viewBox="0 0 12 16" fill="none" xmlns="http://www.w3.org/2000/svg">
<path d="M8.00005 1.60001V4.00001C8.00005 4.44183 8.35823 4.80001 8.80005 4.80001H11.2001M3.60005 12V8.80001M6.00005 12L6.00005 5.60001M8.40006 12V8.80001M10.0001 2.80001C9.644 2.48143 9.27453 2.10359 9.04129 1.85819C8.88608 1.6949 8.67163 1.60001 8.44634 1.60001H2.39987C1.51621 1.60001 0.799872 2.31635 0.799867 3.2L0.799805 12.8C0.799799 13.6836 1.51614 14.4 2.3998 14.4L9.59983 14.4C10.4835 14.4 11.1998 13.6837 11.1998 12.8L11.2 4.31856C11.2001 4.114 11.122 3.91736 10.98 3.77009C10.7175 3.49777 10.2791 3.04968 10.0001 2.80001Z" stroke="#0C0D0E" stroke-width="1.5" stroke-linecap="round" stroke-linejoin="round"/>
</svg>
