<svg width="35" height="32" viewBox="0 0 35 32" fill="none" xmlns="http://www.w3.org/2000/svg">
<path d="M7.04961 31.2L23.1996 16L30.7996 23.6M7.04961 31.2H26.0496C29.1976 31.2 31.7496 28.6481 31.7496 25.5V14.1M7.04961 31.2C3.90159 31.2 1.34961 28.6481 1.34961 25.5V6.50005C1.34961 3.35203 3.90159 0.800049 7.04961 0.800049H19.3996M33.6496 8.40005L29.8496 4.60005M29.8496 4.60005L26.0496 0.800049M29.8496 4.60005L26.0496 8.40005M29.8496 4.60005L33.6496 0.800049M12.7496 9.35005C12.7496 10.9241 11.4736 12.2 9.89961 12.2C8.3256 12.2 7.04961 10.9241 7.04961 9.35005C7.04961 7.77604 8.3256 6.50005 9.89961 6.50005C11.4736 6.50005 12.7496 7.77604 12.7496 9.35005Z" stroke="black" stroke-width="1.5" stroke-linecap="round" stroke-linejoin="round"/>
</svg>
